<svg width="240" height="240" viewBox="0 0 240 240" fill="none" xmlns="http://www.w3.org/2000/svg">
<path d="M127.5 127.5C127.5 129.489 126.71 131.397 125.303 132.803C123.897 134.21 121.989 135 120 135C118.011 135 116.103 134.21 114.697 132.803C113.29 131.397 112.5 129.489 112.5 127.5C112.5 125.511 113.29 123.603 114.697 122.197C116.103 120.79 118.011 120 120 120C121.989 120 123.897 120.79 125.303 122.197C126.71 123.603 127.5 125.511 127.5 127.5ZM75 157.5C76.9891 157.5 78.8968 156.71 80.3033 155.303C81.7098 153.897 82.5 151.989 82.5 150C82.5 148.011 81.7098 146.103 80.3033 144.697C78.8968 143.29 76.9891 142.5 75 142.5C73.0109 142.5 71.1032 143.29 69.6967 144.697C68.2902 146.103 67.5 148.011 67.5 150C67.5 151.989 68.2902 153.897 69.6967 155.303C71.1032 156.71 73.0109 157.5 75 157.5ZM82.5 172.5C82.5 174.489 81.7098 176.397 80.3033 177.803C78.8968 179.21 76.9891 180 75 180C73.0109 180 71.1032 179.21 69.6967 177.803C68.2902 176.397 67.5 174.489 67.5 172.5C67.5 170.511 68.2902 168.603 69.6967 167.197C71.1032 165.79 73.0109 165 75 165C76.9891 165 78.8968 165.79 80.3033 167.197C81.7098 168.603 82.5 170.511 82.5 172.5ZM97.5 157.5C99.4891 157.5 101.397 156.71 102.803 155.303C104.21 153.897 105 151.989 105 150C105 148.011 104.21 146.103 102.803 144.697C101.397 143.29 99.4891 142.5 97.5 142.5C95.5109 142.5 93.6032 143.29 92.1967 144.697C90.7902 146.103 90 148.011 90 150C90 151.989 90.7902 153.897 92.1967 155.303C93.6032 156.71 95.5109 157.5 97.5 157.5ZM105 172.5C105 174.489 104.21 176.397 102.803 177.803C101.397 179.21 99.4891 180 97.5 180C95.5109 180 93.6032 179.21 92.1967 177.803C90.7902 176.397 90 174.489 90 172.5C90 170.511 90.7902 168.603 92.1967 167.197C93.6032 165.79 95.5109 165 97.5 165C99.4891 165 101.397 165.79 102.803 167.197C104.21 168.603 105 170.511 105 172.5ZM120 157.5C121.989 157.5 123.897 156.71 125.303 155.303C126.71 153.897 127.5 151.989 127.5 150C127.5 148.011 126.71 146.103 125.303 144.697C123.897 143.29 121.989 142.5 120 142.5C118.011 142.5 116.103 143.29 114.697 144.697C113.29 146.103 112.5 148.011 112.5 150C112.5 151.989 113.29 153.897 114.697 155.303C116.103 156.71 118.011 157.5 120 157.5ZM127.5 172.5C127.5 174.489 126.71 176.397 125.303 177.803C123.897 179.21 121.989 180 120 180C118.011 180 116.103 179.21 114.697 177.803C113.29 176.397 112.5 174.489 112.5 172.5C112.5 170.511 113.29 168.603 114.697 167.197C116.103 165.79 118.011 165 120 165C121.989 165 123.897 165.79 125.303 167.197C126.71 168.603 127.5 170.511 127.5 172.5ZM142.5 157.5C144.489 157.5 146.397 156.71 147.803 155.303C149.21 153.897 150 151.989 150 150C150 148.011 149.21 146.103 147.803 144.697C146.397 143.29 144.489 142.5 142.5 142.5C140.511 142.5 138.603 143.29 137.197 144.697C135.79 146.103 135 148.011 135 150C135 151.989 135.79 153.897 137.197 155.303C138.603 156.71 140.511 157.5 142.5 157.5ZM150 172.5C150 174.489 149.21 176.397 147.803 177.803C146.397 179.21 144.489 180 142.5 180C140.511 180 138.603 179.21 137.197 177.803C135.79 176.397 135 174.489 135 172.5C135 170.511 135.79 168.603 137.197 167.197C138.603 165.79 140.511 165 142.5 165C144.489 165 146.397 165.79 147.803 167.197C149.21 168.603 150 170.511 150 172.5ZM165 157.5C166.989 157.5 168.897 156.71 170.303 155.303C171.71 153.897 172.5 151.989 172.5 150C172.5 148.011 171.71 146.103 170.303 144.697C168.897 143.29 166.989 142.5 165 142.5C163.011 142.5 161.103 143.29 159.697 144.697C158.29 146.103 157.5 148.011 157.5 150C157.5 151.989 158.29 153.897 159.697 155.303C161.103 156.71 163.011 157.5 165 157.5ZM150 127.5C150 129.489 149.21 131.397 147.803 132.803C146.397 134.21 144.489 135 142.5 135C140.511 135 138.603 134.21 137.197 132.803C135.79 131.397 135 129.489 135 127.5C135 125.511 135.79 123.603 137.197 122.197C138.603 120.79 140.511 120 142.5 120C144.489 120 146.397 120.79 147.803 122.197C149.21 123.603 150 125.511 150 127.5ZM165 135C166.989 135 168.897 134.21 170.303 132.803C171.71 131.397 172.5 129.489 172.5 127.5C172.5 125.511 171.71 123.603 170.303 122.197C168.897 120.79 166.989 120 165 120C163.011 120 161.103 120.79 159.697 122.197C158.29 123.603 157.5 125.511 157.5 127.5C157.5 129.489 158.29 131.397 159.697 132.803C161.103 134.21 163.011 135 165 135Z" fill="#6674F0"/>
<path fill-rule="evenodd" clip-rule="evenodd" d="M67.5 22.5C69.4891 22.5 71.3968 23.2902 72.8033 24.6967C74.2098 26.1032 75 28.0109 75 30V45H165V30C165 28.0109 165.79 26.1032 167.197 24.6967C168.603 23.2902 170.511 22.5 172.5 22.5C174.489 22.5 176.397 23.2902 177.803 24.6967C179.21 26.1032 180 28.0109 180 30V45H187.5C195.456 45 203.087 48.1607 208.713 53.7868C214.339 59.4129 217.5 67.0435 217.5 75V187.5C217.5 195.456 214.339 203.087 208.713 208.713C203.087 214.339 195.456 217.5 187.5 217.5H52.5C44.5435 217.5 36.9129 214.339 31.2868 208.713C25.6607 203.087 22.5 195.456 22.5 187.5V75C22.5 67.0435 25.6607 59.4129 31.2868 53.7868C36.9129 48.1607 44.5435 45 52.5 45H60V30C60 28.0109 60.7902 26.1032 62.1967 24.6967C63.6032 23.2902 65.5109 22.5 67.5 22.5ZM202.5 112.5C202.5 108.522 200.92 104.706 198.107 101.893C195.294 99.0804 191.478 97.5 187.5 97.5H52.5C48.5218 97.5 44.7064 99.0804 41.8934 101.893C39.0804 104.706 37.5 108.522 37.5 112.5V187.5C37.5 191.478 39.0804 195.294 41.8934 198.107C44.7064 200.92 48.5218 202.5 52.5 202.5H187.5C191.478 202.5 195.294 200.92 198.107 198.107C200.92 195.294 202.5 191.478 202.5 187.5V112.5Z" fill="#6674F0"/>
</svg>
